<?xml version="1.0" encoding="utf-8"?>
<!-- Generator: Adobe Illustrator 18.1.1, SVG Export Plug-In . SVG Version: 6.00 Build 0)  -->
<svg version="1.1" id="Capa_1" xmlns="http://www.w3.org/2000/svg" xmlns:xlink="http://www.w3.org/1999/xlink" x="0px" y="0px"
	 viewBox="0 0 500 500" enable-background="new 0 0 500 500" xml:space="preserve">
<g>
	<path fill="#6CB6D1" d="M197.2,182.4c0-2,0-4,0-6c0.2,0,0.2-0.2,0.2-0.3c0.2-2.8,0.9-5.6,2-8.2c4-9.5,11-15.4,21-17.8
		c1.1-0.3,2.3-0.2,3.4-0.7c1.6,0,3.3,0,4.9,0c1.4,0.2,2.9,0.4,4.3,0.7c5.8,1.2,10.8,3.9,14.5,8.7c0.9,1.2,1.7,2.5,2.5,3.9
		c0.7-1.5,1.5-2.7,2.5-3.9c3.7-4.7,8.7-7.4,14.5-8.7c1.3-0.3,2.6-0.3,3.8-0.7c1.7,0,3.4,0,5.1,0c0.8,0.3,1.7,0.3,2.6,0.4
		c4.4,0.9,8.5,2.5,12.1,5.2c7.6,5.6,11.5,13.2,12.1,22.6c0.4,7-1.4,13.5-4.3,19.7c-3.8,8.1-9.3,15-15.5,21.3
		c-9.6,9.6-20.5,17.4-32,24.4c-0.6,0.3-1.1,0.3-1.6,0c-0.6-0.4-1.2-0.8-1.9-1.2c-11.2-6.9-21.7-14.6-30.9-24
		c-6.1-6.2-11.3-13-15-20.9c-2.1-4.4-3.5-9.1-4-14C197.4,182.7,197.5,182.5,197.2,182.4z"/>
	<path fill="#5C9AAA" d="M214.6,202.4c0-1.3,0-2.7,0-4c0.1,0,0.1-0.1,0.1-0.2c0.2-1.9,0.6-3.8,1.3-5.5c2.7-6.4,7.4-10.4,14.1-12
		c0.8-0.2,1.5-0.1,2.3-0.5c1.1,0,2.2,0,3.3,0c1,0.2,2,0.3,2.9,0.5c3.9,0.8,7.2,2.7,9.7,5.8c0.6,0.8,1.2,1.7,1.7,2.6
		c0.5-1,1-1.8,1.7-2.6c2.5-3.2,5.8-5,9.7-5.8c0.8-0.2,1.7-0.2,2.6-0.5c1.1,0,2.3,0,3.4,0c0.6,0.2,1.2,0.2,1.8,0.3
		c3,0.6,5.7,1.7,8.1,3.5c5.1,3.8,7.8,8.9,8.1,15.2c0.3,4.7-0.9,9.1-2.9,13.2c-2.6,5.4-6.2,10.1-10.4,14.3
		c-6.4,6.4-13.8,11.7-21.5,16.4c-0.4,0.2-0.7,0.2-1.1,0c-0.4-0.3-0.8-0.5-1.2-0.8c-7.5-4.6-14.6-9.8-20.8-16.1
		c-4.1-4.2-7.6-8.7-10.1-14.1c-1.4-3-2.3-6.1-2.7-9.4C214.7,202.6,214.8,202.4,214.6,202.4z"/>
</g>
<g>
	<path fill="#EDD559" d="M250,256.9c-37.7,0-68.6-29.9-70.3-67.2L155.7,167c-1.3,6.3-2,12.8-2,19.5c0,53.2,43.1,96.3,96.3,96.3
		c8.8,0,17.3-1.2,25.4-3.4l-24.1-22.6C250.9,256.8,250.5,256.9,250,256.9z"/>
	<path fill="#DC955D" d="M179.7,186.5c0-18.9,7.5-36.1,19.7-48.8l-19-17.8c-12.3,12.8-21.1,29-24.8,47.1l24.1,22.6
		C179.7,188.6,179.7,187.6,179.7,186.5z"/>
	<path fill="#DC955D" d="M251.4,256.8l24.1,22.6c17.7-4.8,33.4-14.6,45.4-27.7l-19-17.8C289.3,247.7,271.3,256.4,251.4,256.8z"/>
	<path fill="#73B9CF" d="M250,116.2c0.4,0,0.9,0,1.3,0l-24.7-23.1c-17.9,4.5-33.9,14-46.2,26.9l19,17.8
		C212.2,124.5,230.1,116.2,250,116.2z"/>
	<path fill="#73B9CF" d="M320.3,186.5c0,18.2-7,34.9-18.4,47.4l19,17.8c12.1-13.1,20.5-29.6,23.9-47.9l-24.7-23.1
		C320.2,182.6,320.3,184.6,320.3,186.5z"/>
	<path fill="#EDD559" d="M250,90.2c-8,0-15.8,1-23.3,2.9c0,0,0,0,0,0l24.7,23.1c0,0,0,0,0.1,0c36.2,0.7,65.7,28.8,68.7,64.4
		c0,0,0,0,0,0l24.7,23.1c0,0,0,0,0,0c1-5.6,1.6-11.4,1.6-17.3C346.3,133.3,303.2,90.2,250,90.2z"/>
</g>
<g>
	<g>
		<g>
			<g>
				<path fill="#6CB6D1" d="M66.3,305.3c1.9,0,2.7,1,2.7,2.9v4c0,1.9-0.9,2.9-2.7,2.9H15.4v35.7h44.4c1.9,0,2.7,1,2.7,2.9v4
					c0,1.9-0.9,2.9-2.7,2.9H15.4v37.2h52.8c1.9,0,2.7,1,2.7,2.9v4c0,1.9-0.9,2.9-2.7,2.9H7.9c-2.2,0-2.9-0.7-2.9-2.9v-96.6
					c0-2.2,0.7-2.9,2.9-2.9H66.3z"/>
				<path fill="#6CB6D1" d="M82.1,360.2c0-18.5,9.4-28.8,28.4-28.8c7.1,0,14.7,1.4,22.8,4.2v-32c0-1.7,0.9-2.6,2.6-2.6h4.5
					c1.9,0,2.6,0.7,2.6,2.6v94c0,4.6-1,5.9-5.6,7.8c-6.8,2.9-15.1,4.3-24.9,4.3c-20.2,0-30.3-9.7-30.3-28.8V360.2z M133.3,344.6
					c-7.4-2.9-14.4-4.3-21-4.3c-13.7,0-20.5,6.8-20.5,20.2v20.2c0,13.4,7.2,20.2,21.5,20.2c6.5,0,12.3-0.9,17.3-2.7
					c2.3-1,2.7-1.4,2.7-3.7V344.6z"/>
				<path fill="#6CB6D1" d="M219.7,333.5c1.7,0,2.6,0.9,2.6,2.6V397c0,4.5-1,6.1-5.5,7.9c-7.6,3.2-16.7,4.8-27,4.8
					c-19,0-28.5-9.4-28.5-28.1v-45.4c0-1.9,0.7-2.6,2.6-2.6h4.5c2.2,0,2.6,0.7,2.6,2.6v45c0,13.1,6.8,19.7,20.2,19.7
					c7.2,0,13.4-1,18.7-3.2c1.7-0.7,2.6-2.2,2.6-4v-57.5c0-1.7,0.9-2.6,2.6-2.6H219.7z"/>
			</g>
		</g>
		<g>
			<g>
				<path fill="#5C9AAA" d="M333.4,305.3c3.6,0,4.9,1.3,4.9,4.9v92.5c0,3.6-1.3,4.9-4.9,4.9H326c-3.6,0-4.9-1.3-4.9-4.9v-44
					c0-8.6,1.1-18.2,3.5-28.7h-1c-2.7,8.4-6.8,17.2-11.8,26.4l-14.1,24.9c-1.4,2.3-3.3,3.5-5.6,3.5h-4.6c-3,0-4-0.6-5.6-3.5
					l-14.4-25.1c-4.5-7.5-8.1-16.3-11.1-26.2h-1c2,9.8,3,19.5,3,28.8v43.8c0,3.6-1.3,4.9-4.9,4.9h-6.9c-3.6,0-5-1.3-5-4.9v-92.5
					c0-3.6,1.4-4.9,5-4.9h6.3c4,0,5.3,0.7,6.9,3.7l30,53.6l30-53.5c1.7-3.3,2.7-3.9,6.6-3.9H333.4z"/>
				<path fill="#5C9AAA" d="M353.3,361.9c0-20.2,11.7-31.1,33.4-31.1c21.9,0,33.3,12.4,33.3,29.8v8.8c0,4.2-2.2,6.2-6.5,6.2H370v5.3
					c0,9.4,5.9,14.4,16.4,14.4c8.1,0,13.7-2.6,17-7.6c2.3-3.3,3.9-3.6,7.4-1.7l5,2.7c3.3,1.6,3.9,3.9,1.7,7.2
					c-5.6,9.2-16,13.8-31.1,13.8c-22.5,0-33.2-12-33.2-30.8V361.9z M403.3,359.6c0-9.4-5.6-14.7-16.6-14.7
					c-10.8,0-16.7,5.3-16.7,14.7v3.2h33.3V359.6z"/>
				<path fill="#5C9AAA" d="M431,360.9c0-19.6,10.1-30.1,30.1-30.1c4.5,0,10.1,0.6,17.2,1.9v-27.2c0-3.3,1-4.5,4.3-4.5h7.9
					c3.3,0,4.5,1.2,4.5,4.5v91.8c0,4.6-1.2,6.1-5.8,7.9c-8.2,3-17.2,4.6-27,4.6c-20.9,0-31.3-9.7-31.3-29.1V360.9z M478.3,348
					c-5.8-1.3-10.4-1.9-14-1.9c-11.1,0-16.6,5-16.6,15.3v18.7c0,9.7,5.3,14.4,16.1,14.4c5,0,9.5-0.6,13.3-1.6
					c0.7-0.3,1.2-0.9,1.2-1.6V348z"/>
			</g>
		</g>
	</g>
</g>
</svg>
