<?xml version="1.0" encoding="UTF-8" standalone="no"?>
<svg
   xmlns:dc="http://purl.org/dc/elements/1.1/"
   xmlns:cc="http://creativecommons.org/ns#"
   xmlns:rdf="http://www.w3.org/1999/02/22-rdf-syntax-ns#"
   xmlns:svg="http://www.w3.org/2000/svg"
   xmlns="http://www.w3.org/2000/svg"
   version="1.1"
   id="svg5073"
   viewBox="0 0 220 220"
   height="220"
   width="220">
  <defs
     id="defs5075" />
  <metadata
     id="metadata5078">
    <rdf:RDF>
      <cc:Work
         rdf:about="">
        <dc:format>image/svg+xml</dc:format>
        <dc:type
           rdf:resource="http://purl.org/dc/dcmitype/StillImage" />
        <dc:title></dc:title>
      </cc:Work>
    </rdf:RDF>
  </metadata>
  <g
     transform="translate(0,-832.36216)"
     id="layer1">
    <g
       id="g4946"
       transform="matrix(1.8947396,0,0,1.8947396,-362.70607,566.96323)">
      <path
         id="path4948"
         d="m 197.2,182.4 c 0,-2 0,-4 0,-6 0.2,0 0.2,-0.2 0.2,-0.3 0.2,-2.8 0.9,-5.6 2,-8.2 4,-9.5 11,-15.4 21,-17.8 1.1,-0.3 2.3,-0.2 3.4,-0.7 1.6,0 3.3,0 4.9,0 1.4,0.2 2.9,0.4 4.3,0.7 5.8,1.2 10.8,3.9 14.5,8.7 0.9,1.2 1.7,2.5 2.5,3.9 0.7,-1.5 1.5,-2.7 2.5,-3.9 3.7,-4.7 8.7,-7.4 14.5,-8.7 1.3,-0.3 2.6,-0.3 3.8,-0.7 1.7,0 3.4,0 5.1,0 0.8,0.3 1.7,0.3 2.6,0.4 4.4,0.9 8.5,2.5 12.1,5.2 7.6,5.6 11.5,13.2 12.1,22.6 0.4,7 -1.4,13.5 -4.3,19.7 -3.8,8.1 -9.3,15 -15.5,21.3 -9.6,9.6 -20.5,17.4 -32,24.4 -0.6,0.3 -1.1,0.3 -1.6,0 -0.6,-0.4 -1.2,-0.8 -1.9,-1.2 -11.2,-6.9 -21.7,-14.6 -30.9,-24 -6.1,-6.2 -11.3,-13 -15,-20.9 -2.1,-4.4 -3.5,-9.1 -4,-14 -0.1,-0.2 0,-0.4 -0.3,-0.5 z"
         style="fill:#6cb6d1" />
      <path
         id="path4950"
         d="m 214.6,202.4 c 0,-1.3 0,-2.7 0,-4 0.1,0 0.1,-0.1 0.1,-0.2 0.2,-1.9 0.6,-3.8 1.3,-5.5 2.7,-6.4 7.4,-10.4 14.1,-12 0.8,-0.2 1.5,-0.1 2.3,-0.5 1.1,0 2.2,0 3.3,0 1,0.2 2,0.3 2.9,0.5 3.9,0.8 7.2,2.7 9.7,5.8 0.6,0.8 1.2,1.7 1.7,2.6 0.5,-1 1,-1.8 1.7,-2.6 2.5,-3.2 5.8,-5 9.7,-5.8 0.8,-0.2 1.7,-0.2 2.6,-0.5 1.1,0 2.3,0 3.4,0 0.6,0.2 1.2,0.2 1.8,0.3 3,0.6 5.7,1.7 8.1,3.5 5.1,3.8 7.8,8.9 8.1,15.2 0.3,4.7 -0.9,9.1 -2.9,13.2 -2.6,5.4 -6.2,10.1 -10.4,14.3 -6.4,6.4 -13.8,11.7 -21.5,16.4 -0.4,0.2 -0.7,0.2 -1.1,0 -0.4,-0.3 -0.8,-0.5 -1.2,-0.8 -7.5,-4.6 -14.6,-9.8 -20.8,-16.1 -4.1,-4.2 -7.6,-8.7 -10.1,-14.1 -1.4,-3 -2.3,-6.1 -2.7,-9.4 0,-0.1 0.1,-0.3 -0.1,-0.3 z"
         style="fill:#5c9aaa" />
    </g>
  </g>
</svg>
