<?xml version="1.0" encoding="UTF-8" standalone="no"?>
<svg
   xmlns:dc="http://purl.org/dc/elements/1.1/"
   xmlns:cc="http://creativecommons.org/ns#"
   xmlns:rdf="http://www.w3.org/1999/02/22-rdf-syntax-ns#"
   xmlns:svg="http://www.w3.org/2000/svg"
   xmlns="http://www.w3.org/2000/svg"
   version="1.1"
   id="svg4631"
   viewBox="0 0 199.99998 200"
   height="200"
   width="200">
  <defs
     id="defs4633" />
  <metadata
     id="metadata4636">
    <rdf:RDF>
      <cc:Work
         rdf:about="">
        <dc:format>image/svg+xml</dc:format>
        <dc:type
           rdf:resource="http://purl.org/dc/dcmitype/StillImage" />
        <dc:title></dc:title>
      </cc:Work>
    </rdf:RDF>
  </metadata>
  <g
     transform="translate(0,-852.36216)"
     id="layer1">
    <g
       transform="matrix(1.1288274,0,0,1.1288274,-14.022798,-125.90553)"
       id="g4687">
      <g
         id="g78"
         transform="matrix(1.25,0,0,-1.25,189.59744,955.21042)">
        <path
           d="m 0,0 c 0,-39.14 -31.73,-70.87 -70.87,-70.87 -39.14,0 -70.87,31.73 -70.87,70.87 0,39.14 31.73,70.87 70.87,70.87 C -31.73,70.87 0,39.14 0,0"
           style="fill:#ff6d00;fill-opacity:1;fill-rule:nonzero;stroke:none"
           id="path80" />
      </g>
      <g
         id="g358"
         transform="matrix(1.25,0,0,-1.25,71.165061,914.08642)">
        <path
           d="m 0,0 c -1.631,0 -2.957,-1.327 -2.957,-2.958 l 0,-68.457 c 0,-1.631 1.326,-2.958 2.957,-2.958 l 29.73,0 c 0.927,0 1.799,0.361 2.455,1.017 l 17.507,17.507 c 0.656,0.656 1.017,1.528 1.017,2.455 l 0,50.436 C 50.709,-1.327 49.382,0 47.751,0 L 0,0 Z m 29.73,-76.909 -29.73,0 c -3.029,0 -5.493,2.465 -5.493,5.494 l 0,68.457 c 0,3.029 2.464,5.494 5.493,5.494 l 47.751,0 c 3.029,0 5.494,-2.465 5.494,-5.494 l 0,-50.436 c 0,-1.604 -0.625,-3.113 -1.76,-4.247 L 33.978,-75.148 c -1.135,-1.136 -2.644,-1.761 -4.248,-1.761"
           style="fill:#ffffff;fill-opacity:1;fill-rule:nonzero;stroke:none"
           id="path360" />
      </g>
      <g
         id="g362"
         transform="matrix(1.25,0,0,-1.25,110.78181,1008.637)">
        <path
           d="m 0,0 20.284,20.284 -17.115,0 C 1.419,20.284 0,18.865 0,17.114 L 0,0 Z"
           style="fill:#ffffff;fill-opacity:1;fill-rule:nonzero;stroke:none"
           id="path364" />
      </g>
      <g
         id="g366"
         transform="matrix(1.25,0,0,-1.25,114.74356,983.81092)">
        <path
           d="m 0,0 c -1.515,0 -2.747,-1.232 -2.747,-2.746 l 0,-16.095 L 16.094,0 0,0 Z m -3.17,-20.284 c -0.054,0 -0.109,0.011 -0.161,0.033 -0.158,0.065 -0.261,0.219 -0.261,0.39 l 0,17.115 c 0,1.98 1.611,3.591 3.592,3.591 l 17.114,0 c 0.171,0 0.325,-0.103 0.39,-0.261 0.066,-0.158 0.03,-0.339 -0.091,-0.46 L -2.871,-20.16 c -0.08,-0.081 -0.188,-0.124 -0.299,-0.124"
           style="fill:#ffffff;fill-opacity:1;fill-rule:nonzero;stroke:none"
           id="path368" />
      </g>
      <g
         id="g370"
         transform="matrix(1.25,0,0,-1.25,125.30756,962.15441)">
        <path
           d="m 0,0 -38.877,0 c -0.7,0 -1.268,0.568 -1.268,1.268 0,0.7 0.568,1.268 1.268,1.268 L 0,2.536 C 0.7,2.536 1.268,1.968 1.268,1.268 1.268,0.568 0.7,0 0,0"
           style="fill:#ffffff;fill-opacity:1;fill-rule:nonzero;stroke:none"
           id="path372" />
      </g>
      <g
         id="g374"
         transform="matrix(1.25,0,0,-1.25,125.30756,952.11779)">
        <path
           d="m 0,0 -38.877,0 c -0.7,0 -1.268,0.568 -1.268,1.268 0,0.7 0.568,1.268 1.268,1.268 L 0,2.536 C 0.7,2.536 1.268,1.968 1.268,1.268 1.268,0.568 0.7,0 0,0"
           style="fill:#ffffff;fill-opacity:1;fill-rule:nonzero;stroke:none"
           id="path376" />
      </g>
      <g
         id="g378"
         transform="matrix(1.25,0,0,-1.25,125.30756,942.08204)">
        <path
           d="m 0,0 -38.877,0 c -0.7,0 -1.268,0.568 -1.268,1.268 0,0.7 0.568,1.268 1.268,1.268 L 0,2.536 C 0.7,2.536 1.268,1.968 1.268,1.268 1.268,0.568 0.7,0 0,0"
           style="fill:#ffffff;fill-opacity:1;fill-rule:nonzero;stroke:none"
           id="path380" />
      </g>
      <g
         id="g382"
         transform="matrix(1.25,0,0,-1.25,125.30756,932.04542)">
        <path
           d="m 0,0 -38.877,0 c -0.7,0 -1.268,0.568 -1.268,1.268 0,0.7 0.568,1.268 1.268,1.268 L 0,2.536 C 0.7,2.536 1.268,1.968 1.268,1.268 1.268,0.568 0.7,0 0,0"
           style="fill:#ffffff;fill-opacity:1;fill-rule:nonzero;stroke:none"
           id="path384" />
      </g>
      <g
         id="g386"
         transform="matrix(1.25,0,0,-1.25,88.490561,1000.7132)">
        <path
           d="m 0,0 c -0.934,0 -1.69,0.756 -1.69,1.69 l 0,12.255 c 0,0.933 0.756,1.689 1.69,1.689 0.934,0 1.69,-0.756 1.69,-1.689 L 1.69,1.69 C 1.69,0.756 0.934,0 0,0"
           style="fill:#ffffff;fill-opacity:1;fill-rule:nonzero;stroke:none"
           id="path388" />
      </g>
      <g
         id="g390"
         transform="matrix(1.25,0,0,-1.25,96.150171,993.05454)">
        <path
           d="m 0,0 -12.255,0 c -0.933,0 -1.69,0.756 -1.69,1.69 0,0.934 0.757,1.69 1.69,1.69 L 0,3.38 C 0.934,3.38 1.69,2.624 1.69,1.69 1.69,0.756 0.934,0 0,0"
           style="fill:#ffffff;fill-opacity:1;fill-rule:nonzero;stroke:none"
           id="path392" />
      </g>
      <g
         id="g394"
         transform="matrix(1.25,0,0,-1.25,101.00967,908.84779)">
        <path
           d="m 0,0 c -1.254,0 -2.271,1.017 -2.271,2.271 0,1.255 1.017,2.272 2.271,2.272 1.254,0 2.271,-1.017 2.271,-2.272 C 2.271,1.017 1.254,0 0,0 m 8.342,2.03 -3.706,0 C 4.64,2.11 4.648,2.19 4.648,2.271 4.648,4.838 2.567,6.92 0,6.92 -2.567,6.92 -4.648,4.838 -4.648,2.271 -4.648,2.19 -4.64,2.11 -4.636,2.03 l -3.706,0 c -1.111,0 -2.011,-0.901 -2.011,-2.011 l 0,-5.883 c 0,-1.111 0.9,-2.011 2.011,-2.011 l 16.684,0 c 1.111,0 2.011,0.9 2.011,2.011 l 0,5.883 c 0,1.11 -0.9,2.011 -2.011,2.011"
           style="fill:#ffffff;fill-opacity:1;fill-rule:nonzero;stroke:none"
           id="path396" />
      </g>
    </g>
  </g>
</svg>
