<?xml version="1.0" encoding="iso-8859-1"?>
<!-- Generator: Adobe Illustrator 19.0.0, SVG Export Plug-In . SVG Version: 6.00 Build 0)  -->
<svg xmlns="http://www.w3.org/2000/svg" xmlns:xlink="http://www.w3.org/1999/xlink" version="1.1" id="Capa_1" x="0px" y="0px" viewBox="0 0 224 224" style="enable-background:new 0 0 224 224;" xml:space="preserve" width="512px" height="512px">
<path d="M20.5,0v224h183V0H20.5z M67.333,201.95c-12.583,0-22.783-10.2-22.783-22.783c0-12.583,10.2-22.783,22.783-22.783  c12.583,0,22.783,10.2,22.783,22.783C90.117,191.749,79.916,201.95,67.333,201.95z M67.333,134.45  c-12.583,0-22.783-10.2-22.783-22.783c0-12.583,10.2-22.783,22.783-22.783c12.583,0,22.783,10.2,22.783,22.783  C90.117,124.249,79.916,134.45,67.333,134.45z M67.333,66.95c-12.583,0-22.783-10.2-22.783-22.783  c0-12.583,10.2-22.783,22.783-22.783c12.583,0,22.783,10.2,22.783,22.783C90.117,56.749,79.916,66.95,67.333,66.95z M119.5,195h-15  V29h15V195z M159.333,201.95c-12.583,0-22.783-10.2-22.783-22.783c0-12.583,10.2-22.783,22.783-22.783  c12.583,0,22.783,10.2,22.783,22.783C182.117,191.749,171.916,201.95,159.333,201.95z M159.333,134.45  c-12.583,0-22.783-10.2-22.783-22.783c0-12.583,10.2-22.783,22.783-22.783c12.583,0,22.783,10.2,22.783,22.783  C182.117,124.249,171.916,134.45,159.333,134.45z M159.333,66.95c-12.583,0-22.783-10.2-22.783-22.783  c0-12.583,10.2-22.783,22.783-22.783c12.583,0,22.783,10.2,22.783,22.783C182.117,56.749,171.916,66.95,159.333,66.95z" fill="#FFFFFF"/>
<g>
</g>
<g>
</g>
<g>
</g>
<g>
</g>
<g>
</g>
<g>
</g>
<g>
</g>
<g>
</g>
<g>
</g>
<g>
</g>
<g>
</g>
<g>
</g>
<g>
</g>
<g>
</g>
<g>
</g>
</svg>
