<?xml version="1.0" encoding="utf-8"?>
<!-- Generator: Adobe Illustrator 18.1.1, SVG Export Plug-In . SVG Version: 6.00 Build 0)  -->
<svg version="1.1" id="Capa_1" xmlns="http://www.w3.org/2000/svg" xmlns:xlink="http://www.w3.org/1999/xlink" x="0px" y="0px"
	 viewBox="0 0 300 300" enable-background="new 0 0 300 300" xml:space="preserve">
<g>
	<path fill="#EDD559" d="M150,255.9c-56.8,0-103.3-45-105.8-101.2L8,120.7C6,130.2,5,140,5,150c0,80.1,64.9,145,145,145
		c13.3,0,26.1-1.8,38.3-5.1l-36.2-34C151.4,255.9,150.7,255.9,150,255.9z"/>
	<path fill="#DC955D" d="M44.1,150c0-28.5,11.3-54.4,29.7-73.4L45.2,49.8C26.8,69.1,13.5,93.5,8,120.7l36.3,34
		C44.2,153.1,44.1,151.6,44.1,150z"/>
	<path fill="#DC955D" d="M152.1,255.8l36.2,34c26.6-7.3,50.2-22,68.4-41.7l-28.5-26.8C209.2,242.1,182.1,255.3,152.1,255.8z"/>
	<path fill="#73B9CF" d="M150,44.1c0.7,0,1.4,0.1,2,0.1L114.8,9.3c-27,6.7-51,21-69.6,40.5l28.5,26.8C93.1,56.5,120.1,44.1,150,44.1
		z"/>
	<path fill="#73B9CF" d="M255.9,150c0,27.5-10.5,52.6-27.8,71.4l28.5,26.8c18.2-19.7,31-44.6,36-72.1l-37.1-34.8
		C255.8,144.1,255.9,147,255.9,150z"/>
	<path fill="#EDD559" d="M150,5c-12.1,0-23.9,1.5-35,4.3h-0.1l37.2,34.9h0.1c54.4,1.1,99,43.4,103.4,97v0.1l37.1,34.8V176
		c1.5-8.5,2.4-17.1,2.4-26C295,69.9,230.1,5,150,5z"/>
</g>
</svg>
