<?xml version="1.0" encoding="utf-8"?>
<!-- Generator: Adobe Illustrator 18.1.1, SVG Export Plug-In . SVG Version: 6.00 Build 0)  -->
<svg version="1.1" id="Capa_1" xmlns="http://www.w3.org/2000/svg" xmlns:xlink="http://www.w3.org/1999/xlink" x="0px" y="0px"
	 viewBox="0 0 300 300" enable-background="new 0 0 300 300" xml:space="preserve">
<g>
	<path fill="#6CB6D1" d="M70.6,143.8c0-3,0-6,0-9c0.3-0.1,0.2-0.3,0.3-0.5c0.4-4.3,1.3-8.4,3-12.4c6-14.3,16.6-23.2,31.7-26.9
		c1.7-0.4,3.4-0.4,5.1-1c2.5,0,5,0,7.4,0c2.2,0.4,4.4,0.7,6.5,1.1c8.8,1.8,16.2,5.9,21.8,13.1c1.4,1.8,2.6,3.7,3.7,5.9
		c1.1-2.2,2.3-4.1,3.7-5.9c5.6-7.2,13-11.2,21.8-13.1c1.9-0.4,3.8-0.5,5.7-1.1c2.5,0,5.1,0,7.7,0c1.2,0.5,2.6,0.4,3.9,0.7
		c6.6,1.3,12.8,3.8,18.2,7.8c11.4,8.5,17.4,19.9,18.2,34c0.7,10.5-2,20.3-6.5,29.7c-5.7,12.2-14,22.6-23.4,32.1
		c-14.4,14.4-30.9,26.2-48.2,36.8c-0.8,0.5-1.7,0.5-2.5,0c-0.9-0.6-1.8-1.2-2.8-1.8c-16.8-10.4-32.7-22-46.5-36.2
		c-9.1-9.4-17-19.6-22.5-31.5c-3.1-6.7-5.3-13.7-6-21C70.8,144.3,71,144,70.6,143.8z"/>
	<path fill="#5C9AAA" d="M96.7,173.9c0-2,0-4,0-6c0.2-0.1,0.2-0.2,0.2-0.4c0.2-2.9,0.9-5.7,2-8.3c4-9.6,11.1-15.6,21.2-18.1
		c1.1-0.3,2.3-0.2,3.4-0.7c1.7,0,3.3,0,5,0c1.5,0.2,3,0.4,4.4,0.7c5.9,1.2,10.9,4,14.6,8.8c0.9,1.2,1.7,2.5,2.5,4
		c0.7-1.5,1.5-2.8,2.5-4c3.7-4.8,8.8-7.5,14.6-8.8c1.3-0.3,2.6-0.3,3.8-0.7c1.7,0,3.4,0,5.1,0c0.8,0.4,1.8,0.2,2.7,0.4
		c4.4,0.9,8.6,2.5,12.3,5.3c7.7,5.7,11.7,13.4,12.3,22.8c0.4,7-1.4,13.6-4.3,19.9c-3.8,8.2-9.4,15.2-15.7,21.5
		c-9.6,9.7-20.8,17.6-32.4,24.7c-0.5,0.4-1.1,0.4-1.7,0c-0.7-0.4-1.2-0.8-1.9-1.2c-11.3-7-22-14.7-31.2-24.3
		c-6.1-6.3-11.4-13.1-15.2-21.2c-2.1-4.5-3.6-9.2-4-14.1C96.8,174.3,97,174,96.7,173.9z"/>
</g>
</svg>
