<?xml version="1.0" encoding="iso-8859-1"?>
<!-- Generator: Adobe Illustrator 19.0.0, SVG Export Plug-In . SVG Version: 6.00 Build 0)  -->
<svg xmlns="http://www.w3.org/2000/svg" xmlns:xlink="http://www.w3.org/1999/xlink" version="1.1" id="Capa_1" x="0px" y="0px" viewBox="0 0 243.245 243.245" style="enable-background:new 0 0 243.245 243.245;" xml:space="preserve" width="512px" height="512px">
<polygon points="222.739,82.023 243.245,61.519 181.727,0 161.221,20.506 174.656,33.941 159.806,48.791 132.936,21.921   112.43,42.427 125.158,55.154 108.894,71.418 132.936,95.459 122.33,106.065 98.289,82.024 82.732,97.581 106.773,121.622   96.167,132.229 72.125,108.187 55.862,124.451 79.903,148.492 69.296,159.099 45.255,135.057 29.281,151.031 44.676,183.72   0,228.396 14.849,243.245 59.526,198.569 92.213,213.964 188.091,118.087 200.819,130.814 221.325,110.309 195.161,84.146   210.011,69.296 " fill="#FFFFFF"/>
<g>
</g>
<g>
</g>
<g>
</g>
<g>
</g>
<g>
</g>
<g>
</g>
<g>
</g>
<g>
</g>
<g>
</g>
<g>
</g>
<g>
</g>
<g>
</g>
<g>
</g>
<g>
</g>
<g>
</g>
</svg>
