<?xml version="1.0" encoding="utf-8"?>
<!-- Generator: Adobe Illustrator 16.0.0, SVG Export Plug-In . SVG Version: 6.00 Build 0)  -->
<!DOCTYPE svg PUBLIC "-//W3C//DTD SVG 1.1//EN" "http://www.w3.org/Graphics/SVG/1.1/DTD/svg11.dtd">
<svg version="1.1" id="Capa_1" xmlns="http://www.w3.org/2000/svg" xmlns:xlink="http://www.w3.org/1999/xlink" x="0px" y="0px"
	 width="512px" height="512px" viewBox="0 0 512 512" enable-background="new 0 0 512 512" xml:space="preserve">
<path fill="#DC955D" d="M256,512c141.263,0,256-114.737,256-256S397.263,0,256,0S0,114.737,0,256S114.737,512,256,512z M256,37.012
	c120.597,0,218.989,98.39,218.989,218.988S376.598,474.988,256,474.988S37.012,376.598,37.012,256S135.402,37.012,256,37.012z"/>
<path fill="#DC955D" d="M178.891,214.053c7.71,0,15.113-3.084,20.665-8.636c11.412-11.412,11.412-29.918,0-41.331
	c-5.552-5.552-12.955-8.636-20.665-8.636s-15.113,3.084-20.665,8.636c-11.412,11.412-11.412,29.918,0,41.331
	C163.778,210.969,171.181,214.053,178.891,214.053z"/>
<path fill="#DC955D" d="M325.706,214.053c7.711,0,15.113-3.084,20.665-8.636c11.412-11.412,11.412-29.918,0-41.331
	c-5.552-5.552-12.954-8.636-20.665-8.636c-7.71,0-15.112,3.084-20.665,8.636c-11.411,11.412-11.411,29.918,0,41.331
	C310.594,210.969,317.687,214.053,325.706,214.053z"/>
<path fill="#DC955D" d="M255.897,308.665c-89.572,0-124.375,64.645-125.813,67.396l31.021,16.207l-0.056,0.106
	c1.075-1.989,27.107-48.71,94.848-48.71c71.184,0,93.145,45.741,94.045,47.688l-0.064-0.145l32.039-14.088
	C380.688,374.326,350.729,308.665,255.897,308.665z"/>
</svg>
